<?xml version="1.0" encoding="UTF-8" standalone="no"?>
<!-- Created with Inkscape (http://www.inkscape.org/) -->

<svg
   width="210mm"
   height="297mm"
   viewBox="0 0 210 297"
   version="1.1"
   id="svg1"
   inkscape:version="1.3 (0e150ed6c4, 2023-07-21)"
   sodipodi:docname="rysunek.svg"
   xmlns:inkscape="http://www.inkscape.org/namespaces/inkscape"
   xmlns:sodipodi="http://sodipodi.sourceforge.net/DTD/sodipodi-0.dtd"
   xmlns="http://www.w3.org/2000/svg"
   xmlns:svg="http://www.w3.org/2000/svg">
  <sodipodi:namedview
     id="namedview1"
     pagecolor="#ffffff"
     bordercolor="#000000"
     borderopacity="0.25"
     inkscape:showpageshadow="2"
     inkscape:pageopacity="0.0"
     inkscape:pagecheckerboard="0"
     inkscape:deskcolor="#d1d1d1"
     inkscape:document-units="mm"
     inkscape:zoom="4.1798822"
     inkscape:cx="116.51046"
     inkscape:cy="10.406992"
     inkscape:window-width="2560"
     inkscape:window-height="1369"
     inkscape:window-x="2552"
     inkscape:window-y="-8"
     inkscape:window-maximized="1"
     inkscape:current-layer="layer1" />
  <defs
     id="defs1" />
  <g
     inkscape:label="Warstwa 1"
     inkscape:groupmode="layer"
     id="layer1">
    <path
       d="M 0.47128951,5.0006394 V 0.45518052 H 1.3766606 L 2.4525639,3.6735887 Q 2.601392,4.1231736 2.6696049,4.3464158 2.7471196,4.0983689 2.9114506,3.6177781 L 3.9997563,0.45518052 H 4.8090092 V 5.0006394 H 4.2291996 V 1.1962206 L 2.90835,5.0006394 H 2.3657475 L 1.0510991,1.1311082 V 5.0006394 Z M 7.856885,4.5944627 Q 7.5468264,4.8580125 7.2584719,4.966533 6.973218,5.0750535 6.6445559,5.0750535 q -0.5426025,0 -0.8340576,-0.2635498 -0.2914551,-0.2666504 -0.2914551,-0.6790283 0,-0.2418457 0.1085205,-0.4402832 0.1116211,-0.2015381 0.2883545,-0.3224609 0.179834,-0.1209229 0.4030762,-0.1829346 0.164331,-0.043408 0.4960937,-0.083716 0.6759278,-0.080615 0.9952881,-0.1922364 0.0031,-0.1147216 0.0031,-0.1457275 0,-0.3410644 -0.1581299,-0.4805908 -0.2139404,-0.1891357 -0.6356201,-0.1891357 -0.3937744,0 -0.5829101,0.1395263 -0.1860352,0.1364258 -0.2759522,0.486792 L 5.6151614,2.6472947 Q 5.6895755,2.2969285 5.8601077,2.0829881 6.0306399,1.8659471 6.3531008,1.7512254 6.6755618,1.6334032 7.100342,1.6334032 q 0.4216797,0 0.6852295,0.099219 0.2635498,0.099219 0.3875733,0.2511475 0.1240234,0.1488281 0.1736328,0.3782714 0.027905,0.142627 0.027905,0.5146973 v 0.7441406 q 0,0.7782471 0.034107,0.9859863 0.037207,0.2046387 0.1426269,0.3937744 H 7.9685061 Q 7.8816897,4.8270066 7.856885,4.5944627 Z M 7.8103762,3.3480272 Q 7.5065188,3.4720506 6.898804,3.558867 6.5546389,3.6084764 6.412012,3.6704881 6.269385,3.7324998 6.1918704,3.8534227 q -0.077515,0.1178222 -0.077515,0.2635498 0,0.2232421 0.1674317,0.3720703 0.1705322,0.1488281 0.4960937,0.1488281 0.3224609,0 0.5736084,-0.1395264 Q 7.602637,4.3557176 7.7204592,4.1107713 7.8103762,3.9216355 7.8103762,3.5526658 Z m 3.5780768,0.4464843 0.548803,0.071314 q -0.08992,0.5674072 -0.461987,0.8898682 -0.36897,0.3193603 -0.908472,0.3193603 -0.6759274,0 -1.0883053,-0.4402832 -0.4092774,-0.4433838 -0.4092774,-1.2681396 0,-0.5333008 0.1767334,-0.9332764 0.1767334,-0.3999756 0.5364014,-0.5984131 0.3627689,-0.201538 0.7875489,-0.201538 0.536401,0 0.877466,0.2728515 0.341064,0.269751 0.437182,0.7689453 l -0.542602,0.083716 q -0.07752,-0.3317627 -0.275952,-0.4991943 -0.195337,-0.1674316 -0.47439,-0.1674316 -0.42168,0 -0.6852295,0.3038574 -0.2635498,0.3007568 -0.2635498,0.9549804 0,0.6635254 0.2542481,0.9642823 0.2542482,0.3007568 0.6635252,0.3007568 0.328662,0 0.548804,-0.2015381 0.220141,-0.2015381 0.279053,-0.6201172 z M 12.417846,1.0970018 V 0.45518052 h 0.558106 V 1.0970018 Z m 0,3.9036376 V 1.7078172 h 0.558106 v 3.2928222 z m 3.661792,-1.0604003 0.576709,0.071313 q -0.136425,0.5053955 -0.505395,0.7844483 -0.36897,0.2790527 -0.942578,0.2790527 -0.722437,0 -1.147217,-0.4433838 -0.42168,-0.4464844 -0.42168,-1.2495361 0,-0.830957 0.427881,-1.2898437 0.427881,-0.4588867 1.11001,-0.4588867 0.660425,0 1.079004,0.4495849 0.418579,0.449585 0.418579,1.2650391 0,0.049609 -0.0031,0.1488281 h -2.455664 q 0.03101,0.5426025 0.306958,0.830957 0.275952,0.2883545 0.68833,0.2883545 0.306958,0 0.523999,-0.1612305 0.217041,-0.1612304 0.344165,-0.5146972 z M 14.247192,3.0379686 h 1.838647 Q 16.048632,2.6224901 15.875,2.4147508 15.608349,2.0922899 15.183569,2.0922899 q -0.384473,0 -0.648022,0.2573486 -0.26045,0.2573486 -0.288355,0.6883301 z M 17.35398,1.103203 V 0.45518052 h 0.558106 V 1.103203 Z m -0.706933,5.1748778 0.10542,-0.4743896 q 0.167431,0.043408 0.263549,0.043408 0.170533,0 0.254249,-0.1147217 0.08372,-0.1116211 0.08372,-0.5643066 V 1.7078172 h 0.558106 v 3.4726562 q 0,0.6077149 -0.15813,0.84646 -0.201538,0.3100586 -0.669727,0.3100586 -0.226342,0 -0.437182,-0.058911 z M 20.603394,5.0006394 V 0.45518052 h 1.714624 q 0.452685,0 0.69143,0.0434082 0.334864,0.0558106 0.561206,0.21394043 0.226343,0.1550293 0.362769,0.43718265 0.139526,0.2821533 0.139526,0.6201171 0,0.5798096 -0.368969,0.9828858 -0.36897,0.3999755 -1.333252,0.3999755 h -1.165821 v 1.8479492 z m 0.601513,-2.3843505 h 1.175122 q 0.58291,0 0.827857,-0.217041 0.244946,-0.217041 0.244946,-0.6108154 0,-0.2852539 -0.145727,-0.486792 -0.142627,-0.2046387 -0.378272,-0.269751 -0.151929,-0.0403076 -0.561206,-0.0403076 h -1.16272 z M 24.77058,1.0970018 V 0.45518052 h 0.558105 V 1.0970018 Z m 0,3.9036376 V 1.7078172 h 0.558105 v 3.2928222 z m 3.661792,-1.0604003 0.576709,0.071313 q -0.136426,0.5053955 -0.505396,0.7844483 -0.368969,0.2790527 -0.942578,0.2790527 -0.722436,0 -1.147216,-0.4433838 -0.42168,-0.4464844 -0.42168,-1.2495361 0,-0.830957 0.427881,-1.2898437 0.427881,-0.4588867 1.110009,-0.4588867 0.660425,0 1.079004,0.4495849 0.418579,0.449585 0.418579,1.2650391 0,0.049609 -0.0031,0.1488281 H 26.56892 q 0.03101,0.5426025 0.306958,0.830957 0.275952,0.2883545 0.68833,0.2883545 0.306958,0 0.523999,-0.1612305 0.217041,-0.1612304 0.344165,-0.5146972 z M 26.599926,3.0379686 h 1.838647 q -0.03721,-0.4154785 -0.21084,-0.6232178 -0.26665,-0.3224609 -0.69143,-0.3224609 -0.384473,0 -0.648023,0.2573486 -0.260449,0.2573486 -0.288354,0.6883301 z m 1.438672,1.9626708 q -0.176734,0.1085205 -0.275953,0.2666504 -0.09612,0.1612305 -0.09612,0.3255615 0,0.1302247 0.07131,0.2201416 0.07131,0.089917 0.232544,0.089917 0.07131,0 0.145727,-0.021704 0.07441,-0.018604 0.136426,-0.05271 v 0.396875 q -0.226343,0.1085205 -0.42168,0.1085205 -0.15813,0 -0.275952,-0.046509 -0.117822,-0.043408 -0.198437,-0.1240235 -0.07752,-0.077515 -0.117823,-0.1798339 -0.03721,-0.1023194 -0.03721,-0.2201416 0,-0.1984375 0.111621,-0.3999756 0.111622,-0.1984375 0.31626,-0.3627686 z m 2.889747,-0.4991943 0.08061,0.4929932 q -0.235645,0.049609 -0.42168,0.049609 -0.303857,0 -0.471289,-0.096118 Q 29.94856,4.8518113 29.880347,4.696782 29.812134,4.5386521 29.812134,4.0363572 v -1.894458 h -0.409277 v -0.434082 h 0.409277 V 0.89236313 L 30.367139,0.55749986 V 1.7078172 h 0.561206 v 0.434082 h -0.561206 v 1.9254639 q 0,0.2387451 0.0279,0.306958 0.03101,0.068213 0.09612,0.1085205 0.06821,0.040308 0.192236,0.040308 0.09302,0 0.244947,-0.021704 z m 0.548803,0.4991943 V 0.45518052 h 0.558105 V 3.0472703 l 1.32085,-1.3394531 h 0.722436 l -1.258838,1.2216309 1.385962,2.0711913 h -0.68833 L 32.429028,3.3170213 32.035253,3.6952928 v 1.3053466 z m 5.320606,-0.4061767 q -0.310058,0.2635498 -0.598413,0.3720703 -0.285254,0.1085205 -0.613916,0.1085205 -0.542602,0 -0.834057,-0.2635498 -0.291455,-0.2666504 -0.291455,-0.6790283 0,-0.2418457 0.10852,-0.4402832 0.111621,-0.2015381 0.288355,-0.3224609 0.179834,-0.1209229 0.403076,-0.1829346 0.164331,-0.043408 0.496093,-0.083716 0.675928,-0.080615 0.995289,-0.1922364 0.0031,-0.1147216 0.0031,-0.1457275 0,-0.3410644 -0.15813,-0.4805908 -0.21394,-0.1891357 -0.63562,-0.1891357 -0.393774,0 -0.58291,0.1395263 -0.186035,0.1364258 -0.275952,0.486792 l -0.545703,-0.074414 q 0.07441,-0.3503662 0.244946,-0.5643066 0.170532,-0.217041 0.492993,-0.3317627 0.322461,-0.1178222 0.747241,-0.1178222 0.42168,0 0.68523,0.099219 0.26355,0.099219 0.387573,0.2511475 0.124024,0.1488281 0.173633,0.3782714 0.0279,0.142627 0.0279,0.5146973 v 0.7441406 q 0,0.7782471 0.03411,0.9859863 0.03721,0.2046387 0.142627,0.3937744 H 36.909375 Q 36.822559,4.8270066 36.797754,4.5944627 Z m -0.04651,-1.2464355 q -0.303858,0.1240234 -0.911573,0.2108398 -0.344165,0.049609 -0.486792,0.1116211 -0.142627,0.062012 -0.220141,0.1829346 -0.07751,0.1178222 -0.07751,0.2635498 0,0.2232421 0.167432,0.3720703 0.170532,0.1488281 0.496093,0.1488281 0.322461,0 0.573609,-0.1395264 0.251147,-0.1426269 0.36897,-0.3875732 0.08992,-0.1891358 0.08992,-0.5581055 z m 5.971727,1.1162109 v 0.5364013 h -3.004468 q -0.0062,-0.201538 0.06511,-0.3875732 0.114722,-0.306958 0.365869,-0.6046142 0.254248,-0.2976563 0.731738,-0.6883301 0.741041,-0.6077148 1.00149,-0.9611816 0.260449,-0.3565674 0.260449,-0.6728272 0,-0.3317627 -0.238745,-0.5581054 -0.235645,-0.2294434 -0.617017,-0.2294434 -0.403076,0 -0.644922,0.2418457 -0.241845,0.2418457 -0.244946,0.6697266 l -0.573608,-0.058911 q 0.05891,-0.6418213 0.443383,-0.97668453 0.384473,-0.33796386 1.032496,-0.33796386 0.654223,0 1.035595,0.36276855 0.381372,0.36276854 0.381372,0.89916994 0,0.2728515 -0.111621,0.5364013 -0.111621,0.2635498 -0.37207,0.5550049 -0.257349,0.2914551 -0.858862,0.7999512 -0.502295,0.4216796 -0.644922,0.5736083 -0.142627,0.1488282 -0.235645,0.3007569 z m 0.598412,-1.7053223 q 0,-0.8061523 0.164331,-1.2960449 0.167432,-0.49299312 0.492993,-0.75964351 0.328662,-0.26665038 0.824756,-0.26665038 0.365869,0 0.641821,0.14882812 0.275952,0.14572754 0.455786,0.42478027 0.179834,0.2759521 0.282154,0.6759277 0.102319,0.396875 0.102319,1.0728027 0,0.7999512 -0.164331,1.2929444 -0.164331,0.4898925 -0.492993,0.7596435 -0.325562,0.2666504 -0.824756,0.2666504 -0.657324,0 -1.032495,-0.4712891 -0.449585,-0.5674072 -0.449585,-1.8479492 z m 0.573608,0 q 0,1.1193115 0.260449,1.4913819 0.26355,0.3689697 0.648023,0.3689697 0.384473,0 0.644922,-0.3720703 0.26355,-0.3720703 0.26355,-1.4882813 0,-1.1224121 -0.26355,-1.4913818 -0.260449,-0.3689697 -0.651123,-0.3689697 -0.384473,0 -0.613916,0.3255615 -0.288355,0.4154785 -0.288355,1.53479 z m 5.891117,1.7053223 v 0.5364013 h -3.004468 q -0.0062,-0.201538 0.06511,-0.3875732 0.114722,-0.306958 0.365869,-0.6046142 0.254248,-0.2976563 0.731739,-0.6883301 0.74104,-0.6077148 1.001489,-0.9611816 0.260449,-0.3565674 0.260449,-0.6728272 0,-0.3317627 -0.238745,-0.5581054 -0.235645,-0.2294434 -0.617017,-0.2294434 -0.403076,0 -0.644922,0.2418457 -0.241845,0.2418457 -0.244946,0.6697266 l -0.573608,-0.058911 q 0.05891,-0.6418213 0.443384,-0.97668453 0.384472,-0.33796386 1.032495,-0.33796386 0.654223,0 1.035595,0.36276855 0.381372,0.36276854 0.381372,0.89916994 0,0.2728515 -0.111621,0.5364013 -0.111621,0.2635498 -0.37207,0.5550049 -0.257349,0.2914551 -0.858862,0.7999512 -0.502295,0.4216796 -0.644922,0.5736083 -0.142627,0.1488282 -0.235645,0.3007569 z m 0.601513,-0.6635254 0.558105,-0.074414 q 0.09612,0.4743897 0.325562,0.6852295 0.232543,0.2077393 0.564306,0.2077393 0.393775,0 0.663526,-0.2728516 0.272851,-0.2728515 0.272851,-0.6759277 0,-0.3844727 -0.251147,-0.6325195 -0.251148,-0.2511475 -0.638721,-0.2511475 -0.15813,0 -0.393774,0.062012 l 0.06201,-0.4898925 q 0.05581,0.0062 0.08992,0.0062 0.356568,0 0.641822,-0.1860351 0.285253,-0.1860352 0.285253,-0.5736084 0,-0.306958 -0.207739,-0.5084961 -0.207739,-0.20153808 -0.536401,-0.20153808 -0.325562,0 -0.542603,0.20463868 -0.217041,0.2046387 -0.279052,0.613916 l -0.558106,-0.099219 q 0.102319,-0.561206 0.465088,-0.868164 0.362769,-0.31005859 0.90227,-0.31005859 0.372071,0 0.68523,0.16123046 0.313159,0.15812988 0.47749,0.43408203 0.167432,0.2759521 0.167432,0.5860107 0,0.2945557 -0.15813,0.5364014 -0.15813,0.2418457 -0.468189,0.3844726 0.403077,0.093018 0.626319,0.3875733 0.223242,0.2914551 0.223242,0.7317382 0,0.5953125 -0.434082,1.010791 -0.434082,0.412378 -1.097607,0.412378 -0.598414,0 -0.995289,-0.3565674 -0.393774,-0.3565674 -0.449584,-0.9239746 z"
       id="text1"
       style="font-size:6.35px;font-family:Arial;-inkscape-font-specification:Arial;fill:none;stroke:#000000;stroke-width:0.264583"
       aria-label="Maciej Piętka 2023" />
  </g>
</svg>
