<?xml version="1.0" encoding="UTF-8" standalone="no"?>
<!-- Created with Inkscape (http://www.inkscape.org/) -->

<svg
   width="210mm"
   height="297mm"
   viewBox="0 0 210 297"
   version="1.1"
   id="svg1"
   inkscape:version="1.3 (0e150ed6c4, 2023-07-21)"
   sodipodi:docname="signature.svg"
   xmlns:inkscape="http://www.inkscape.org/namespaces/inkscape"
   xmlns:sodipodi="http://sodipodi.sourceforge.net/DTD/sodipodi-0.dtd"
   xmlns="http://www.w3.org/2000/svg"
   xmlns:svg="http://www.w3.org/2000/svg">
  <sodipodi:namedview
     id="namedview1"
     pagecolor="#ffffff"
     bordercolor="#000000"
     borderopacity="0.25"
     inkscape:showpageshadow="2"
     inkscape:pageopacity="0.0"
     inkscape:pagecheckerboard="0"
     inkscape:deskcolor="#d1d1d1"
     inkscape:document-units="mm"
     showgrid="true"
     inkscape:zoom="5.911246"
     inkscape:cx="203.84873"
     inkscape:cy="83.146599"
     inkscape:window-width="2560"
     inkscape:window-height="1369"
     inkscape:window-x="2552"
     inkscape:window-y="-8"
     inkscape:window-maximized="1"
     inkscape:current-layer="layer1">
    <inkscape:grid
       id="grid1"
       units="mm"
       originx="0"
       originy="0"
       spacingx="0.99999998"
       spacingy="1"
       empcolor="#0099e5"
       empopacity="0.30196078"
       color="#0099e5"
       opacity="0.14901961"
       empspacing="5"
       dotted="false"
       gridanglex="30"
       gridanglez="30"
       visible="true" />
  </sodipodi:namedview>
  <defs
     id="defs1" />
  <g
     inkscape:label="Warstwa 1"
     inkscape:groupmode="layer"
     id="layer1">
    <path
       style="fill:none;stroke:#000000;stroke-width:0.264583;stroke-opacity:1"
       d="m 48.999999,16.999999 c -1.195781,1.162956 0.127392,6.135342 0.341752,8.103959"
       id="path12" />
    <path
       style="fill:none;stroke:#000000;stroke-width:0.264583;stroke-opacity:1"
       d="m 47.632672,17.660486 c 3.062253,-3.081478 5.628471,2.358535 0.91784,2.925855"
       id="path13" />
    <path
       style="fill:none;stroke:#000000;stroke-width:0.264583;stroke-opacity:1"
       d="m 51.276326,21.996483 c -0.05107,0.848495 0.314164,2.639546 0.375849,3.121795"
       id="path14" />
    <path
       style="fill:none;stroke:#000000;stroke-width:0.264583;stroke-opacity:1"
       d="M 51.276326,21.01172 Z"
       id="path15" />
    <path
       style="fill:none;stroke:#000000;stroke-width:0.264583;stroke-opacity:1"
       d="m 51.000001,20.999999 c 0.79181,-0.148286 -0.05231,-0.0022 0.276325,0.01172"
       id="path16" />
    <path
       style="fill:none;stroke:#000000;stroke-width:0.264583;stroke-opacity:1"
       d="m 53.044756,23.067191 c 0.580237,0.166918 1.376826,0.321786 1.80403,-0.247818 0.748633,-0.998178 -1.625055,-1.554244 -1.835679,0.09495 -0.116994,0.916064 0.619273,1.953312 1.740728,1.392583 0.389062,-0.19453 -0.685335,0.600127 -0.822889,1.012788 C 53.666254,26.113772 53.981366,27.685733 55,27"
       id="path17" />
    <path
       style="fill:none;stroke:#000000;stroke-width:0.264583;stroke-opacity:1"
       d="m 56.114769,18.653427 c -0.04607,1.971192 0.273879,3.951989 0.632992,5.86388"
       id="path18" />
    <path
       style="fill:none;stroke:#000000;stroke-width:0.264583;stroke-opacity:1"
       d="m 55.121479,20.801915 c 0.639826,-0.217692 1.540819,-0.238152 1.942779,-0.08423"
       id="path19" />
    <path
       style="fill:none;stroke:#000000;stroke-width:0.264583;stroke-opacity:1"
       d="m 57.69725,19.614979 c 0.201427,1.755353 0.563438,3.62375 0.88619,5.306874"
       id="path20" />
    <path
       style="fill:none;stroke:#000000;stroke-width:0.264583;stroke-opacity:1"
       d="m 58.139591,23.067191 c 0.595831,-0.280247 1.130261,-0.947893 1.424985,-1.471159"
       id="path21" />
    <path
       style="fill:none;stroke:#000000;stroke-width:0.264583;stroke-opacity:1"
       d="m 58.139591,23.067191 c 1.06444,-0.09258 2.391561,1.188652 3.102417,1.61045"
       id="path22" />
    <path
       style="fill:none;stroke:#000000;stroke-width:0.264583;stroke-opacity:1"
       d="m 65.641304,24.791411 c -0.332031,0.198101 -0.911741,0.0017 -1.171035,-0.294608 -0.433404,-0.495319 -0.464172,-2.287561 -1.171038,-2.405371 -1.071317,-0.178553 -2.169091,1.913707 -1.392582,2.690217 0.809795,0.809794 1.729804,-0.295302 1.867326,-0.920974"
       id="path23" />
    <path
       style="fill:none;stroke:#000000;stroke-width:0.264583;stroke-opacity:1"
       d="m 30.554266,23.999084 c -0.332031,0.198101 -0.911741,0.0017 -1.171035,-0.294608 -0.433404,-0.495319 -0.464172,-2.287561 -1.171038,-2.405371 -1.071317,-0.178553 -2.169091,1.913707 -1.392582,2.690217 0.809795,0.809794 1.729804,-0.295302 1.867326,-0.920974"
       id="path23-5" />
    <path
       style="fill:none;stroke:#000000;stroke-width:0.264583;stroke-opacity:1"
       d="m 18.645154,25.054398 c -0.446771,-0.0034 1.157719,-8.515339 1.392583,-8.47058 0.111862,0.148431 0.188629,0.787435 0.316496,1.171036 0.296965,0.890894 0.525876,1.96959 0.949489,2.816816 0.166105,0.33221 1.934465,-4.363809 2.120524,-4.17775 0.146386,0.146386 1.435006,6.539591 1.962277,8.059507"
       id="path25"
       sodipodi:nodetypes="ccsssc" />
    <path
       style="fill:none;stroke:#000000;stroke-width:0.264583;stroke-opacity:1"
       d="m 32.630755,21.01172 c -2.468705,-1.217807 -2.450624,5.149629 0.189897,2.848955"
       id="path26" />
    <path
       style="fill:none;stroke:#000000;stroke-width:0.264583;stroke-opacity:1"
       d="m 33.80179,21.143892 c -0.06797,1.185536 0.209627,2.600261 0.379797,3.647519"
       id="path29" />
    <path
       style="fill:none;stroke:#000000;stroke-width:0.264583;stroke-opacity:1"
       d="m 33.421994,19.599897 c 0.408144,0.215957 -0.114744,0.22186 0.236895,0"
       id="path30" />
    <path
       style="fill:none;stroke:#000000;stroke-width:0.264583;stroke-opacity:1"
       d="m 39.470889,19.806606 c 0.408144,0.215957 -0.114744,0.22186 0.236895,0"
       id="path30-0" />
    <path
       style="fill:none;stroke:#000000;stroke-width:0.264583;stroke-opacity:1"
       d="m 35.384271,22.273332 c 0.386131,0.60544 1.287772,0.615915 1.867326,0.229545 2.242815,-1.49521 -2.944365,-2.344931 -1.898975,0.79124 0.351356,1.054072 1.944608,1.577849 2.500318,0.566558"
       id="path31" />
    <path
       style="fill:none;stroke:#000000;stroke-width:0.264583;stroke-opacity:1"
       d="m 38.770779,22.974474 c 0.710099,-0.178208 0.486593,-1.337985 0.822891,-1.674282 0.07347,-0.07347 0.08013,0.191911 0.126598,0.284846 0.239226,0.47845 0.437044,0.948945 0.696291,1.424233 0.762397,1.397727 1.809652,3.859769 0.348147,5.158887 -1.819373,1.61722 -2.913552,-1.208363 -1.804027,-2.595268 0.929007,-1.161261 2.291781,-1.837015 2.911763,-3.213884"
       id="path32" />
    <path
       style="fill:none;stroke:#000000;stroke-width:0.397276;stroke-opacity:1"
       d="m 36.252464,33.68639 c 0.360548,-2.66149 4.025653,-1.72928 2.988494,1.197816 -0.724399,2.044416 -4.624032,5.59249 -3.667977,4.030299 0.89562,-1.463444 3.42387,3.145502 4.865732,-0.279176"
       id="path33"
       sodipodi:nodetypes="cssc" />
    <path
       style="fill:none;stroke:#000000;stroke-width:0.362418;stroke-opacity:1"
       d="m 41.421053,37.197245 c -0.09133,-0.559723 -0.238527,-1.362274 -0.0846,-1.955002 1.331427,-5.126953 5.843463,-1.562149 5.372043,2.399323 -0.436378,3.667013 -5.070552,2.495598 -5.275054,-0.447478"
       id="path34"
       sodipodi:nodetypes="cssc" />
    <path
       style="fill:none;stroke:#000000;stroke-width:0.362418;stroke-opacity:1"
       d="m 47.657857,34.47481 c 1.778032,-4.039721 4.868171,0.236182 0.954123,5.343921 -0.01474,0.01042 -0.490324,0.373598 -0.549896,0.311021 -0.30421,-0.319546 0.240104,-1.040552 0.507595,-1.110796 0.725738,-0.190582 2.428698,3.80387 3.553164,-0.133298"
       id="path35"
       sodipodi:nodetypes="ccssc" />
    <path
       style="fill:none;stroke:#000000;stroke-width:0.362418;stroke-opacity:1"
       d="m 53.13803,34.797922 c -0.316848,-2.663098 1.145733,-1.110796 3.17247,-1.110796 0.434359,0 1.703343,-0.311026 1.268988,-0.311026 -1.189924,0 -1.561939,3.513425 -2.114979,2.932508 -0.296845,-0.31181 1.38985,-0.507083 1.649681,-0.355454 1.003209,0.58543 1.359278,2.658941 0.592196,3.598983 -1.324979,1.623733 -4.103059,0.769446 -4.103059,-1.332955"
       id="path36" />
  </g>
</svg>
